<?xml version="1.0" encoding="utf-8"?>
<!-- Generator: Adobe Illustrator 21.1.0, SVG Export Plug-In . SVG Version: 6.00 Build 0)  -->
<svg version="1.1" xmlns="http://www.w3.org/2000/svg" xmlns:xlink="http://www.w3.org/1999/xlink" x="0px" y="0px"
	 viewBox="0 0 595.3 368.9" style="enable-background:new 0 0 595.3 368.9;" xml:space="preserve">
<g id="Layer_2">
	<g>
		<path d="M102.1,50c-2.7,0-4.1-0.8-4.1-2.3v-6.1c0-1.5,1.4-2.3,4.1-2.3h1.2c2.7,0,4.1,0.8,4.1,2.3v6.1c0,1.5-1.4,2.3-4.1,2.3H102.1
			z M98.4,114.8V65c0-1.5,1.4-2.3,4.1-2.3h0.4c2.7,0,4.1,0.8,4.1,2.3v49.7c0,1.5-1.4,2.3-4.1,2.3h-0.4
			C99.7,117,98.4,116.3,98.4,114.8z"/>
		<path d="M125,114.8V41.6c0-1.5,1.4-2.3,4.1-2.3h0.4c2.7,0,4.1,0.8,4.1,2.3v26c4.5-3.5,9.7-5.3,15.4-5.3s10.6,2.4,14.4,7.2
			c3.8,4.8,5.8,11.4,5.8,19.8v0.9c0,8-1.8,14.5-5.4,19.6c-3.6,5.1-8.4,7.6-14.5,7.6c-6,0-11.5-2.6-16.5-7.7l-1.6,6.1
			c-0.3,0.8-1.3,1.2-2.8,1.2h-0.4C126.1,117,125,116.3,125,114.8z M133.7,102.8c4.3,4.7,8.8,7.1,13.3,7.1c8.9,0,13.3-6.9,13.3-20.8
			c0-6.1-1.2-10.8-3.5-14.1c-2.3-3.3-5.6-5-10-5h-0.6c-4.6,0-8.8,1.5-12.5,4.6V102.8z"/>
		<path d="M184.2,114.8V78.6c0-4.2-0.2-7.2-0.5-9c-0.5-2.5-0.7-3.8-0.7-4c0-0.8,0.7-1.4,2-1.8c1.3-0.4,2.3-0.6,3-0.6
			c0.7,0,1.2,0.1,1.5,0.2c0.3,0.1,0.5,0.4,0.8,0.7c0.2,0.3,0.4,0.6,0.6,0.9c0.1,0.3,0.3,0.7,0.4,1.2c0.1,0.5,0.3,0.9,0.4,1.2
			c0.1,0.3,0.2,0.8,0.3,1.3c0.1,0.6,0.2,1,0.3,1.2c3.6-5.1,7.6-7.7,11.9-7.7c1.9,0,3.4,0.4,4.4,1.1c1,0.8,1.5,1.7,1.5,2.9
			c0,1.2-0.2,2.4-0.6,3.7c-0.4,1.3-0.9,1.9-1.4,1.9c-0.3,0-0.9-0.2-2-0.6c-1.1-0.4-2.3-0.6-3.8-0.6c-1.5,0-3,0.5-4.6,1.6
			c-1.6,1.1-2.7,2.1-3.5,3.1l-1.2,1.5v37.7c0,1.5-1.4,2.3-4.1,2.3h-0.4C185.5,117,184.2,116.3,184.2,114.8z"/>
		<path d="M251.8,83.2v-4.8c0-5.8-3.8-8.7-11.3-8.7c-4.9,0-9.5,1.1-13.7,3.2c-1.4,0.8-2.2,1.1-2.4,1.1c-0.7,0-1.5-0.7-2.3-2.1
			c-0.9-1.4-1.3-2.4-1.3-3.1c0-1.4,2-2.9,6-4.4c4-1.5,8.8-2.2,14.5-2.2c5.6,0,10.2,1.4,13.8,4.3c3.6,2.9,5.4,6.8,5.4,11.9v23.1
			c0,4.1,0.2,7.1,0.5,9c0.5,2.5,0.7,3.9,0.7,4c0,0.8-0.7,1.4-2,1.8c-1.3,0.4-2.3,0.6-3,0.6c-0.7,0-1.2-0.1-1.5-0.2s-0.5-0.4-0.8-0.7
			c-0.2-0.3-0.4-0.7-0.6-1c-0.1-0.3-0.3-0.7-0.4-1.3c-0.1-0.5-0.3-1-0.4-1.3c-0.1-0.3-0.2-0.8-0.3-1.4c-0.1-0.7-0.2-1.1-0.3-1.3
			c-4.7,5.1-10.4,7.7-17.3,7.7c-5.3,0-9.5-1.3-12.8-3.9c-3.2-2.6-4.8-6.6-4.8-12.1c0-5.4,1.9-9.5,5.6-12.2c3.7-2.7,7.9-4.4,12.6-4.9
			C240.5,83.7,245.9,83.4,251.8,83.2z M226.9,101.5c0,5.6,2.9,8.4,8.8,8.4c3.4,0,6.3-0.6,8.7-1.9c2.4-1.2,4.9-3,7.5-5.3V90.7
			c-8.6,0-14.1,0.5-16.6,1.4c-1.3,0.5-2.7,1.1-4.1,1.9C228.3,95.4,226.9,97.9,226.9,101.5z"/>
		<path d="M278,114.8V78.6c0-4.2-0.2-7.2-0.5-9c-0.5-2.5-0.7-3.8-0.7-4c0-0.8,0.7-1.4,2-1.8c1.3-0.4,2.3-0.6,3-0.6
			c0.7,0,1.2,0.1,1.5,0.2c0.3,0.1,0.5,0.4,0.8,0.7c0.2,0.3,0.4,0.6,0.6,0.9c0.1,0.3,0.3,0.7,0.4,1.2c0.1,0.5,0.3,0.9,0.4,1.2
			c0.1,0.3,0.2,0.8,0.3,1.3c0.1,0.6,0.2,1,0.3,1.2c3.6-5.1,7.6-7.7,11.9-7.7c1.9,0,3.4,0.4,4.4,1.1c1,0.8,1.5,1.7,1.5,2.9
			c0,1.2-0.2,2.4-0.6,3.7c-0.4,1.3-0.9,1.9-1.4,1.9c-0.3,0-0.9-0.2-2-0.6c-1.1-0.4-2.3-0.6-3.8-0.6c-1.5,0-3,0.5-4.6,1.6
			c-1.6,1.1-2.7,2.1-3.5,3.1l-1.2,1.5v37.7c0,1.5-1.4,2.3-4.1,2.3h-0.4C279.4,117,278,116.3,278,114.8z"/>
		<path d="M308.3,64.5c0-1.2,1.5-1.8,4.4-1.8h0.8c2.3,0,3.6,0.6,4.1,1.6l14,37.2l13.7-37.2c0.3-1.1,1.9-1.6,4.6-1.6
			c2.7,0,4.1,0.6,4.1,1.8c0,0.3-0.1,0.8-0.3,1.4l-26.5,70.1c-0.5,1.4-2.2,2.2-4.8,2.2h-1.5c-2.3,0-3.4-0.6-3.4-1.6
			c0-0.2,3.1-7.8,9.2-22.7l-18-48.1C308.4,65.2,308.3,64.8,308.3,64.5z"/>
	</g>
	<g>
		<path d="M241.2,214.2v-4.8c0-5.8-3.8-8.7-11.3-8.7c-4.9,0-9.5,1.1-13.7,3.2c-1.4,0.8-2.2,1.1-2.4,1.1c-0.7,0-1.5-0.7-2.3-2.1
			c-0.9-1.4-1.3-2.4-1.3-3.1c0-1.4,2-2.9,6-4.4c4-1.5,8.8-2.2,14.5-2.2c5.6,0,10.2,1.4,13.8,4.3c3.6,2.9,5.4,6.8,5.4,11.9v23.1
			c0,4.1,0.2,7.1,0.5,9c0.5,2.5,0.7,3.9,0.7,4c0,0.8-0.7,1.4-2,1.8c-1.3,0.4-2.3,0.6-3,0.6c-0.7,0-1.2-0.1-1.5-0.2
			c-0.3-0.1-0.5-0.4-0.8-0.7c-0.2-0.3-0.4-0.7-0.6-1c-0.1-0.3-0.3-0.7-0.4-1.3c-0.1-0.5-0.3-1-0.4-1.3c-0.1-0.3-0.2-0.8-0.3-1.4
			c-0.1-0.7-0.2-1.1-0.3-1.3c-4.7,5.2-10.4,7.7-17.3,7.7c-5.3,0-9.5-1.3-12.8-3.9c-3.2-2.6-4.8-6.6-4.8-12.1c0-5.4,1.9-9.5,5.6-12.2
			c3.7-2.7,7.9-4.4,12.6-4.9C229.9,214.7,235.3,214.4,241.2,214.2z M216.3,232.5c0,5.6,2.9,8.4,8.8,8.4c3.4,0,6.3-0.6,8.7-1.9
			c2.4-1.2,4.9-3,7.5-5.3v-12.2c-8.6,0-14.1,0.5-16.6,1.4c-1.3,0.5-2.7,1.1-4.1,1.9C217.7,226.4,216.3,228.9,216.3,232.5z"/>
		<path d="M267.4,245.8v-36.2c0-4.2-0.2-7.2-0.5-9c-0.5-2.5-0.7-3.8-0.7-4c0-0.8,0.7-1.4,2-1.8c1.3-0.4,2.3-0.6,3-0.6
			c0.7,0,1.2,0.1,1.5,0.2c0.3,0.1,0.5,0.4,0.8,0.7c0.2,0.3,0.4,0.6,0.6,0.9c0.1,0.3,0.3,0.7,0.4,1.2c0.1,0.5,0.3,0.9,0.4,1.2
			c0.1,0.3,0.2,0.8,0.3,1.3c0.1,0.6,0.2,1,0.3,1.2c3.6-5.2,7.6-7.7,11.9-7.7c1.9,0,3.4,0.4,4.4,1.1c1,0.8,1.5,1.7,1.5,2.9
			c0,1.2-0.2,2.4-0.6,3.7c-0.4,1.3-0.9,1.9-1.4,1.9c-0.3,0-0.9-0.2-2-0.6c-1.1-0.4-2.3-0.6-3.8-0.6c-1.5,0-3,0.5-4.6,1.6
			c-1.6,1.1-2.7,2.1-3.5,3.1l-1.2,1.5v37.7c0,1.5-1.4,2.3-4.1,2.3h-0.4C268.8,248,267.4,247.3,267.4,245.8z"/>
		<path d="M313.3,267c0,1.5-1.4,2.3-4.1,2.3h-0.4c-2.7,0-4.1-0.8-4.1-2.3v-57.4c0-4.2-0.2-7.2-0.5-9c-0.5-2.5-0.7-3.8-0.7-4
			c0-0.8,0.7-1.4,2-1.8c1.3-0.4,2.3-0.6,3-0.6c0.7,0,1.2,0.1,1.5,0.2c0.3,0.1,0.5,0.4,0.8,0.7c0.2,0.3,0.4,0.6,0.6,0.9
			c0.1,0.3,0.3,0.7,0.4,1.2c0.1,0.5,0.3,0.9,0.4,1.2s0.2,0.8,0.3,1.3c0.1,0.6,0.2,1,0.3,1.2c4.9-5.2,10.4-7.7,16.5-7.7
			c6,0,10.9,2.5,14.5,7.6c3.6,5.1,5.4,11.6,5.4,19.6v0.9c0,8.4-1.9,15.1-5.8,19.8c-3.8,4.8-8.7,7.2-14.4,7.2s-10.9-1.8-15.5-5.3V267
			z M325.8,240.8h0.6c4.4-0.1,7.7-1.8,10-5c2.3-3.3,3.4-8.1,3.4-14.5c0-6.4-1.1-11.4-3.3-15c-2.2-3.6-5.5-5.4-10-5.4
			c-4.5,0-8.9,2.4-13.2,7.1v28.2C317.1,239.3,321.2,240.8,325.8,240.8z"/>
		<path d="M366.7,241.7c-4.1-4.5-6.2-11.3-6.2-20.4s2-16.1,6.1-20.9c4.1-4.7,9.8-7.1,17.3-7.1c14.6,0,21.8,9,21.8,26.9
			c0,0.6-0.4,1.5-1.2,2.6c-0.8,1.1-1.5,1.6-2.2,1.6h-32.5c0.4,5.7,1.9,9.9,4.4,12.6c2.5,2.7,6.4,4,11.4,4c4.7,0,9-1.1,12.9-3.3
			c1.3-0.7,2-1,2.2-1c0.7,0,1.5,0.7,2.3,2.1c0.9,1.4,1.3,2.4,1.3,3.1c0,1.4-1.9,2.8-5.6,4.3c-3.7,1.5-8.1,2.3-12.9,2.3
			C377.2,248.4,370.8,246.2,366.7,241.7z M396.6,217c0-10.8-4.1-16.3-12.4-16.3c-8.9,0-13.7,5.4-14.4,16.3H396.6z"/>
		<path d="M419.2,245.8v-36.2c0-4.2-0.2-7.2-0.5-9c-0.5-2.5-0.7-3.8-0.7-4c0-0.8,0.7-1.4,2-1.8c1.3-0.4,2.3-0.6,3-0.6
			c0.7,0,1.2,0.1,1.5,0.2c0.3,0.1,0.5,0.4,0.8,0.7c0.2,0.3,0.4,0.6,0.6,0.9c0.1,0.3,0.3,0.7,0.4,1.2c0.1,0.5,0.3,0.9,0.4,1.2
			c0.1,0.3,0.2,0.8,0.3,1.3c0.1,0.6,0.2,1,0.3,1.2c4.6-5.2,9.7-7.7,15.4-7.7s10,1.5,13,4.4c3,3,4.5,7,4.5,12.3v35.7
			c0,1.5-1.4,2.3-4.1,2.3h-0.4c-2.7,0-4.1-0.8-4.1-2.3v-34.9c0-3.2-0.9-5.6-2.7-7.4c-1.8-1.8-4.4-2.6-7.8-2.6c-4.9,0-9.3,2.4-13,7.2
			v37.7c0,1.5-1.4,2.3-4.1,2.3h-0.4C420.6,248,419.2,247.3,419.2,245.8z"/>
		<path d="M478.8,234.2v-32.9h-5.2c-1.4,0-2.1-1-2.1-3.1V197c0-2.1,0.7-3.1,2.1-3.1h5.2l1.2-10.8c0.1-1.5,1.2-2.3,3.3-2.3h1
			c2.1,0,3.1,0.8,3.1,2.3V194h8.7c1.4,0,2.1,1,2.1,3.1v1.2c0,2.1-0.7,3.1-2.1,3.1h-8.7v32c0,5.1,1.9,7.6,5.6,7.6
			c1.2,0,2.2-0.1,3-0.3c0.8-0.2,1.3-0.3,1.4-0.3c0.6,0,1.1,0.6,1.5,1.9c0.4,1.3,0.6,2.2,0.6,2.9c0,2.1-2.5,3.1-7.5,3.1
			c-3.4,0-6.5-1-9.2-3.1C480.1,243.2,478.8,239.5,478.8,234.2z"/>
		<path d="M512.2,245.8v-36.2c0-4.2-0.2-7.2-0.5-9c-0.5-2.5-0.7-3.8-0.7-4c0-0.8,0.7-1.4,2-1.8c1.3-0.4,2.3-0.6,3-0.6
			c0.7,0,1.2,0.1,1.5,0.2c0.3,0.1,0.5,0.4,0.8,0.7c0.2,0.3,0.4,0.6,0.6,0.9c0.1,0.3,0.3,0.7,0.4,1.2c0.1,0.5,0.3,0.9,0.4,1.2
			c0.1,0.3,0.2,0.8,0.3,1.3c0.1,0.6,0.2,1,0.3,1.2c3.6-5.2,7.6-7.7,11.9-7.7c1.9,0,3.4,0.4,4.4,1.1c1,0.8,1.5,1.7,1.5,2.9
			c0,1.2-0.2,2.4-0.6,3.7c-0.4,1.3-0.9,1.9-1.4,1.9c-0.3,0-0.9-0.2-2-0.6c-1.1-0.4-2.3-0.6-3.8-0.6c-1.5,0-3,0.5-4.6,1.6
			c-1.6,1.1-2.7,2.1-3.5,3.1l-1.2,1.5v37.7c0,1.5-1.4,2.3-4.1,2.3h-0.4C513.6,248,512.2,247.3,512.2,245.8z"/>
		<path d="M542.5,195.5c0-1.2,1.5-1.8,4.4-1.8h0.8c2.3,0,3.6,0.6,4.1,1.6l14,37.2l13.7-37.2c0.3-1.1,1.9-1.6,4.6-1.6
			c2.7,0,4.1,0.6,4.1,1.8c0,0.3-0.1,0.8-0.3,1.4l-26.5,70.1c-0.5,1.4-2.2,2.2-4.8,2.2h-1.5c-2.3,0-3.4-0.6-3.4-1.6
			c0-0.2,3.1-7.8,9.2-22.7l-18-48.1C542.6,196.2,542.5,195.8,542.5,195.5z"/>
	</g>
</g>
<g id="Layer_3">
	<path d="M70,19.8v-8H42v212h28v-57h-7v-4h7v-16H58v-4h12v-17h-7v-4h7v-17H58v-4h12v-16h-7v-4h7v-16H58v-4h12v-37H58v-4H70z
		 M60,200.3c0,2.5-2,4.5-4.5,4.5s-4.5-2-4.5-4.5s2-4.5,4.5-4.5S60,197.8,60,200.3z M63,39.8h6v5h-6V39.8z"/>
	<path d="M7.1,188.5h33v20.8c0,0-6.2,1.8-14,0C10.9,204.9,7.1,188.5,7.1,188.5z"/>
	<path d="M71.9,188.5h38.3v28.2C93,229,71.9,212,71.9,212V188.5z"/>
	<path d="M196.6,311.3c0,1,0.8,1.7,1.7,1.7h16.4c1,0,1.7-0.8,1.7-1.7v-1.7h0.8v-25.3h-0.8v-1.8c0-1-0.8-1.7-1.7-1.7h-16.4
		c-1,0-1.7,0.8-1.7,1.7v1.8h-0.1h-38l-19.3-18.4v-88.3l20.2-19.1l31.1,0v2.9h-2.3c-1.2,0-2.2,1-2.2,2.2v4.6c0,1.2,1,2.2,2.2,2.2
		h30.7c1.2,0,2.2-1,2.2-2.2v-4.6c0-1.2-1-2.2-2.2-2.2h-2.3v-2.9l0.8,0v-25.1h-69L112,167.7v108.2l35,33.6h49.5V311.3z"/>
	<path d="M240.4,336.5h-15.2c-1,0-1.9,0.8-1.9,1.9v0.7h-9.2v-4.6c0-0.8-0.7-1.5-1.5-1.5h-1.7v-17.9h-8.8V333h-1.7
		c-0.8,0-1.5,0.7-1.5,1.5v4.6h-32v-1.4c0-0.7-0.5-1.2-1.2-1.2h-2h-0.3H158v13h5.5h0.3h2c0.7,0,1.2-0.5,1.2-1.2v-1.8h32v5.1
		c0,0.8,0.7,1.5,1.5,1.5h12.3c0.8,0,1.5-0.7,1.5-1.5v-5.1h9.2v1.1c0,1,0.8,1.9,1.9,1.9h15.2c1,0,1.9-0.8,1.9-1.9v-9.2
		C242.2,337.3,241.4,336.5,240.4,336.5z"/>
	<path d="M211.3,278.4v-18.5h3.4c1,0,1.7-0.8,1.7-1.7V257v-1.1v-5.7h-19.9v5.7v1.1v1.1c0,1,0.8,1.7,1.7,1.7h4.2v18.5H211.3z"/>
	<path d="M141.1,210.5c0,0,23.5,0,26.5-1.2c14.9-7.4,15.8-20.8,15.8-20.8h-42.2V210.5z"/>
</g>
</svg>
